<svg class="sc" xmlns="http://www.w3.org/2000/svg" viewBox="0 0 480 300" width="480" height="300" preserveAspectRatio="xMidYMid meet" fill="none" role="img" aria-label="Shield current returning through the chassis versus through the audio reference">
<title>Shield current and pin 1</title>
<style>
.sc text{font-family:ui-monospace,SFMono-Regular,Menlo,monospace;font-size:var(--ulm-anim-fs,12px);letter-spacing:1.1px;fill:var(--ulm-dim,#7C838E);stroke:none}
.sc .hi{fill:var(--ulm-accent,#E03B3B)}
@keyframes sc-run{0%{stroke-dashoffset:36}100%{stroke-dashoffset:0}}
.sc-flow{stroke-dasharray:7 5;animation:sc-run 1.1s linear infinite}
@media (prefers-reduced-motion: reduce){.sc *{animation:none!important}}
</style>
<text x="24" y="32" class="hi">WHERE PIN 1 LANDS</text>
<text x="24" y="50">INTERFERENCE ARRIVES ON THE SHIELD EITHER WAY</text>
<text x="52" y="86">PIN 1 &#8594; CHASSIS</text>
<text x="264" y="86" class="hi">PIN 1 &#8594; AUDIO 0V</text>
<rect x="88" y="98" width="150" height="76" rx="3" stroke="var(--ulm-dim,#7C838E)" stroke-width="1.5"/><circle cx="88" cy="120" r="11" stroke="var(--ulm-line,#E8E6E1)" stroke-width="2"/><path d="M52 114h25M52 126h25" stroke="var(--ulm-line,#E8E6E1)" stroke-width="2"/><path d="M99 120h139" stroke="var(--ulm-line,#E8E6E1)" stroke-width="2"/><path class="sc-flow" d="M52 152h36" stroke="var(--ulm-line,#E8E6E1)" stroke-width="2.4"/><path class="sc-flow" d="M88 152v34" stroke="var(--ulm-line,#E8E6E1)" stroke-width="2.4"/><path d="M77 186h22M82 192h12M86 197h4" stroke="var(--ulm-line,#E8E6E1)" stroke-width="1.5"/><rect x="300" y="98" width="150" height="76" rx="3" stroke="var(--ulm-dim,#7C838E)" stroke-width="1.5"/><circle cx="300" cy="120" r="11" stroke="var(--ulm-line,#E8E6E1)" stroke-width="2"/><path d="M264 114h25M264 126h25" stroke="var(--ulm-line,#E8E6E1)" stroke-width="2"/><path d="M311 120h139" stroke="var(--ulm-line,#E8E6E1)" stroke-width="2"/><path class="sc-flow" d="M264 152h36" stroke="var(--ulm-accent,#E03B3B)" stroke-width="2.4"/><path class="sc-flow" d="M300 152h150" stroke="var(--ulm-accent,#E03B3B)" stroke-width="2.4"/><path d="M324 146v-14M320 136l4 -5l4 5" stroke="var(--ulm-accent,#E03B3B)" stroke-width="1.5"/><path d="M362 146v-14M358 136l4 -5l4 5" stroke="var(--ulm-accent,#E03B3B)" stroke-width="1.5"/><path d="M400 146v-14M396 136l4 -5l4 5" stroke="var(--ulm-accent,#E03B3B)" stroke-width="1.5"/>
<path d="M56.0 246.0L57.3 244.1L58.6 242.3L59.9 240.5L61.2 238.8L62.5 237.2L63.8 235.7L65.1 234.4L66.4 233.3L67.7 232.4L69.0 231.7L70.3 231.3L71.6 231.0L72.9 231.0L74.2 231.3L75.5 231.7L76.8 232.4L78.1 233.3L79.4 234.4L80.7 235.7L82.0 237.2L83.3 238.8L84.6 240.5L85.9 242.3L87.2 244.1L88.5 246.0L89.8 247.9L91.1 249.7L92.4 251.5L93.7 253.2L95.0 254.8L96.3 256.3L97.6 257.6L98.9 258.7L100.2 259.6L101.5 260.3L102.8 260.7L104.1 261.0L105.4 261.0L106.7 260.7L108.0 260.3L109.3 259.6L110.6 258.7L111.9 257.6L113.2 256.3L114.5 254.8L115.8 253.2L117.1 251.5L118.4 249.7L119.7 247.9L121.0 246.0L122.3 244.1L123.6 242.3L124.9 240.5L126.2 238.8L127.5 237.2L128.8 235.7L130.1 234.4L131.4 233.3L132.7 232.4L134.0 231.7L135.3 231.3L136.6 231.0L137.9 231.0L139.2 231.3L140.5 231.7L141.8 232.4L143.1 233.3L144.4 234.4L145.7 235.7L147.0 237.2L148.3 238.8L149.6 240.5L150.9 242.3L152.2 244.1L153.5 246.0L154.8 247.9L156.1 249.7L157.4 251.5L158.7 253.2L160.0 254.8L161.3 256.3L162.6 257.6L163.9 258.7L165.2 259.6L166.5 260.3L167.8 260.7L169.1 261.0L170.4 261.0L171.7 260.7L173.0 260.3L174.3 259.6L175.6 258.7L176.9 257.6L178.2 256.3L179.5 254.8L180.8 253.2L182.1 251.5L183.4 249.7L184.7 247.9L186.0 246.0" stroke="var(--ulm-line,#E8E6E1)" stroke-width="2"/>
<path d="M268.0 246.0L269.3 240.3L270.6 236.4L271.9 235.3L273.2 236.7L274.5 239.2L275.8 240.9L277.1 240.4L278.4 237.2L279.7 232.4L281.0 227.9L282.3 225.4L283.6 225.8L284.9 229.0L286.2 233.3L287.5 236.9L288.8 238.3L290.1 237.2L291.4 234.4L292.7 231.9L294.0 231.3L295.3 233.6L296.6 238.4L297.9 244.3L299.2 249.3L300.5 251.9L301.8 251.7L303.1 249.7L304.4 247.7L305.7 247.3L307.0 249.6L308.3 254.2L309.6 259.6L310.9 263.9L312.2 265.5L313.5 264.1L314.8 260.7L316.1 257.1L317.4 255.1L318.7 255.5L320.0 258.2L321.3 261.6L322.6 263.9L323.9 263.5L325.2 260.1L326.5 254.8L327.8 249.4L329.1 245.6L330.4 244.5L331.7 245.8L333.0 248.1L334.3 249.3L335.6 248.2L336.9 244.3L338.2 238.8L339.5 233.3L340.8 229.8L342.1 229.2L343.4 231.3L344.7 234.5L346.0 236.9L347.3 237.2L348.6 234.9L349.9 231.0L351.2 227.4L352.5 225.8L353.8 227.2L355.1 231.3L356.4 236.5L357.7 240.9L359.0 243.1L360.3 242.6L361.6 240.5L362.9 238.4L364.2 238.2L365.5 240.8L366.8 245.8L368.1 251.8L369.4 256.7L370.7 259.1L372.0 258.7L373.3 256.3L374.6 253.7L375.9 252.8L377.2 254.4L378.5 258.2L379.8 262.8L381.1 266.2L382.4 266.9L383.7 264.6L385.0 260.3L386.3 255.7L387.6 252.8L388.9 252.4L390.2 254.2L391.5 256.9L392.8 258.4L394.1 257.4L395.4 253.6L396.7 247.9L398.0 242.1" stroke="var(--ulm-accent,#E03B3B)" stroke-width="2"/>
<text x="52" y="276">OUTPUT CLEAN</text>
<text x="268" y="276" class="hi">OUTPUT HUMS</text>
<text x="24" y="294">SHIELD CURRENT IN THE AUDIO REFERENCE IS SIGNAL</text>
</svg>
