<svg class="iz" xmlns="http://www.w3.org/2000/svg" viewBox="0 0 480 300" width="480" height="300" preserveAspectRatio="xMidYMid meet" fill="none" role="img" aria-label="How a preamp's input impedance loads a microphone whose output impedance varies with frequency">
<title>Impedance bridging</title>
<style>
.iz text{font-family:ui-monospace,SFMono-Regular,Menlo,monospace;font-size:var(--ulm-anim-fs,12px);letter-spacing:1.1px;fill:var(--ulm-dim,#7C838E);stroke:none}
.iz .hi{fill:var(--ulm-accent,#E03B3B)}
50%{transform:translateX(150px)}100%{transform:translateX(0)}}
.iz-mark{animation:iz-step 12s linear infinite}
@media (prefers-reduced-motion: reduce){.iz *{animation:none!important}.iz-s2{opacity:1!important}.iz-mark{transform:translateX(150px)}}
@keyframes iz-s0{0%,0.0%{opacity:0}1.5%,30.3%{opacity:1}31.8%,100%{opacity:0}}.iz-s0{animation:iz-s0 12s linear infinite;opacity:0}
@keyframes iz-s1{0%,33.3%{opacity:0}34.8%,63.6%{opacity:1}65.1%,100%{opacity:0}}.iz-s1{animation:iz-s1 12s linear infinite;opacity:0}
@keyframes iz-s2{0%,66.6%{opacity:0}68.1%,96.9%{opacity:1}98.4%,100%{opacity:0}}.iz-s2{animation:iz-s2 12s linear infinite;opacity:0}
@keyframes iz-step{0%,32%{transform:translateX(0)}33.3%,65.3%{transform:translateX(75px)}66.6%,98.6%{transform:translateX(150px)}100%{transform:translateX(0)}}
</style>
<text x="24" y="32">INPUT IMPEDANCE IS A TONE CONTROL</text>
<text x="24" y="50">LOSS = 20 log ( Zin / (Zsource + Zin) )</text>
<path d="M74 94V232H445" stroke="var(--ulm-dim,#7C838E)" stroke-width="1.5"/>
<path d="M74 100H445M74 166H445" stroke="var(--ulm-dim,#7C838E)" stroke-width="1.5" stroke-dasharray="3 5"/>
<text x="22" y="104">0 dB</text><text x="16" y="170">-12 dB</text><text x="16" y="236">-24 dB</text>
<text x="74" y="252">20 Hz</text><text x="389" y="252">20 kHz</text>
<path class="iz-s0" d="M74 161.2L77.1 162L80.2 163L83.3 164L86.4 165.2L89.5 166.6L92.5 168.2L95.6 170L98.7 172.1L101.8 174.5L104.9 177.2L108 180.4L111.1 183.9L114.2 187.9L117.3 192.2L120.4 196.7L123.5 201L126.6 204.7L129.7 207.3L132.7 208.4L135.8 207.6L138.9 205.3L142 201.7L145.1 197.4L148.2 193L151.3 188.6L154.4 184.6L157.5 180.9L160.6 177.7L163.7 174.9L166.8 172.4L169.8 170.3L172.9 168.4L176 166.8L179.1 165.4L182.2 164.2L185.3 163.1L188.4 162.2L191.5 161.4L194.6 160.6L197.7 160L200.8 159.4L203.8 158.9L206.9 158.4L210 158L213.1 157.6L216.2 157.3L219.3 157L222.4 156.7L225.5 156.4L228.6 156.2L231.7 156L234.8 155.8L237.9 155.6L240.9 155.5L244 155.3L247.1 155.2L250.2 155L253.3 154.9L256.4 154.8L259.5 154.7L262.6 154.6L265.7 154.5L268.8 154.4L271.9 154.3L275 154.2L278.1 154.2L281.1 154.1L284.2 154L287.3 154L290.4 153.9L293.5 153.9L296.6 153.8L299.7 153.8L302.8 153.7L305.9 153.7L309 153.6L312.1 153.6L315.1 153.6L318.2 153.5L321.3 153.5L324.4 153.5L327.5 153.4L330.6 153.4L333.7 153.4L336.8 153.4L339.9 153.3L343 153.3L346.1 153.3L349.2 153.3L352.2 153.2L355.3 153.2L358.4 153.2L361.5 153.2L364.6 153.2L367.7 153.1L370.8 153.1L373.9 153.1L377 153.1L380.1 153.1L383.2 153.1L386.3 153.1L389.4 153L392.4 153L395.5 153L398.6 153L401.7 153L404.8 153L407.9 153L411 153L414.1 152.9L417.2 152.9L420.3 152.9L423.4 152.9L426.4 152.9L429.5 152.9L432.6 152.9L435.7 152.9L438.8 152.9L441.9 152.9L445 152.9" stroke="var(--ulm-accent,#E03B3B)" stroke-width="2.4" stroke-linejoin="round"/>
<path class="iz-s1" d="M74 113.2L77.1 113.5L80.2 113.8L83.3 114.2L86.4 114.6L89.5 115.1L92.5 115.6L95.6 116.3L98.7 117.1L101.8 118.1L104.9 119.2L108 120.5L111.1 122.1L114.2 123.9L117.3 126L120.4 128.2L123.5 130.5L126.6 132.5L129.7 134L132.7 134.6L135.8 134.1L138.9 132.8L142 130.8L145.1 128.6L148.2 126.3L151.3 124.2L154.4 122.4L157.5 120.8L160.6 119.4L163.7 118.2L166.8 117.3L169.8 116.4L172.9 115.8L176 115.2L179.1 114.7L182.2 114.2L185.3 113.9L188.4 113.5L191.5 113.3L194.6 113L197.7 112.8L200.8 112.6L203.8 112.4L206.9 112.3L210 112.2L213.1 112L216.2 111.9L219.3 111.8L222.4 111.8L225.5 111.7L228.6 111.6L231.7 111.5L234.8 111.5L237.9 111.4L240.9 111.4L244 111.3L247.1 111.3L250.2 111.2L253.3 111.2L256.4 111.2L259.5 111.1L262.6 111.1L265.7 111.1L268.8 111L271.9 111L275 111L278.1 111L281.1 111L284.2 110.9L287.3 110.9L290.4 110.9L293.5 110.9L296.6 110.9L299.7 110.9L302.8 110.8L305.9 110.8L309 110.8L312.1 110.8L315.1 110.8L318.2 110.8L321.3 110.8L324.4 110.8L327.5 110.8L330.6 110.7L333.7 110.7L336.8 110.7L339.9 110.7L343 110.7L346.1 110.7L349.2 110.7L352.2 110.7L355.3 110.7L358.4 110.7L361.5 110.7L364.6 110.7L367.7 110.7L370.8 110.7L373.9 110.7L377 110.6L380.1 110.6L383.2 110.6L386.3 110.6L389.4 110.6L392.4 110.6L395.5 110.6L398.6 110.6L401.7 110.6L404.8 110.6L407.9 110.6L411 110.6L414.1 110.6L417.2 110.6L420.3 110.6L423.4 110.6L426.4 110.6L429.5 110.6L432.6 110.6L435.7 110.6L438.8 110.6L441.9 110.6L445 110.6" stroke="var(--ulm-accent,#E03B3B)" stroke-width="2.4" stroke-linejoin="round"/>
<path class="iz-s2" d="M74 101.8L77.1 101.9L80.2 101.9L83.3 102L86.4 102L89.5 102.1L92.5 102.2L95.6 102.3L98.7 102.5L101.8 102.6L104.9 102.8L108 103L111.1 103.3L114.2 103.7L117.3 104L120.4 104.5L123.5 105L126.6 105.4L129.7 105.7L132.7 105.8L135.8 105.7L138.9 105.4L142 105L145.1 104.6L148.2 104.1L151.3 103.7L154.4 103.4L157.5 103.1L160.6 102.8L163.7 102.6L166.8 102.5L169.8 102.3L172.9 102.2L176 102.1L179.1 102.1L182.2 102L185.3 101.9L188.4 101.9L191.5 101.8L194.6 101.8L197.7 101.8L200.8 101.7L203.8 101.7L206.9 101.7L210 101.7L213.1 101.6L216.2 101.6L219.3 101.6L222.4 101.6L225.5 101.6L228.6 101.6L231.7 101.6L234.8 101.6L237.9 101.6L240.9 101.5L244 101.5L247.1 101.5L250.2 101.5L253.3 101.5L256.4 101.5L259.5 101.5L262.6 101.5L265.7 101.5L268.8 101.5L271.9 101.5L275 101.5L278.1 101.5L281.1 101.5L284.2 101.5L287.3 101.5L290.4 101.5L293.5 101.5L296.6 101.5L299.7 101.5L302.8 101.5L305.9 101.5L309 101.5L312.1 101.5L315.1 101.5L318.2 101.5L321.3 101.5L324.4 101.5L327.5 101.5L330.6 101.5L333.7 101.5L336.8 101.5L339.9 101.4L343 101.4L346.1 101.4L349.2 101.4L352.2 101.4L355.3 101.4L358.4 101.4L361.5 101.4L364.6 101.4L367.7 101.4L370.8 101.4L373.9 101.4L377 101.4L380.1 101.4L383.2 101.4L386.3 101.4L389.4 101.4L392.4 101.4L395.5 101.4L398.6 101.4L401.7 101.4L404.8 101.4L407.9 101.4L411 101.4L414.1 101.4L417.2 101.4L420.3 101.4L423.4 101.4L426.4 101.4L429.5 101.4L432.6 101.4L435.7 101.4L438.8 101.4L441.9 101.4L445 101.4" stroke="var(--ulm-accent,#E03B3B)" stroke-width="2.4" stroke-linejoin="round"/><text class="iz-s0" x="24" y="288">150 &#937; INPUT</text>
<text class="iz-s1" x="24" y="288">1.1 k&#937; INPUT</text>
<text class="iz-s2" x="24" y="288">10 k&#937; INPUT &#183; BRIDGED</text>
<text x="74" y="86">THE DIP TRACKS THE MIC&#8217;S OWN RESONANCE</text>
<g transform="translate(250 264)"><path d="M0 0h150M0 -5v10M150 -5v10" stroke="var(--ulm-dim,#7C838E)" stroke-width="1.5"/><circle class="iz-mark" cx="0" cy="0" r="4.5" fill="var(--ulm-accent,#E03B3B)" stroke="none"/></g>
<text x="24" y="268">PREAMP INPUT Z</text>
<text x="216" y="288">150 &#937;</text><text x="378" y="288">10 k&#937;</text>
</svg>
