<svg xmlns="http://www.w3.org/2000/svg" viewBox="0 0 700 500"><rect width="700" height="500" fill="#0d0b09"/><line x1="134" y1="261" x2="114" y2="245" stroke="#eceae5" stroke-width="6"/><line x1="185" y1="212" x2="169" y2="191" stroke="#eceae5" stroke-width="4"/><line x1="246" y1="176" x2="236" y2="152" stroke="#eceae5" stroke-width="4"/><line x1="315" y1="158" x2="311" y2="133" stroke="#eceae5" stroke-width="4"/><line x1="385" y1="158" x2="389" y2="133" stroke="#eceae5" stroke-width="4"/><line x1="454" y1="176" x2="464" y2="152" stroke="#eceae5" stroke-width="4"/><line x1="515" y1="212" x2="531" y2="191" stroke="#ff7a1a" stroke-width="6"/><line x1="566" y1="261" x2="586" y2="245" stroke="#ff7a1a" stroke-width="4"/><polyline points="541,176 545,179 548,181 551,184 554,186 558,189 561,192 564,195 567,197 570,200 573,203 576,206 579,209 582,212 584,215 587,218 590,221 593,225 595,228 598,231 601,234" fill="none" stroke="#ff7a1a" stroke-width="9"/><line x1="350" y1="430" x2="550" y2="223" stroke="#eceae5" stroke-width="7"/><circle cx="350" cy="430" r="16" fill="#eceae5"/></svg>